<svg aria-hidden="true" style="position: absolute; width: 0; height: 0; overflow: hidden;" version="1.1" xmlns="http://www.w3.org/2000/svg" xmlns:xlink="http://www.w3.org/1999/xlink">
<defs>
<symbol id="icon-twitter" viewBox="0 0 32 32">
<path fill="#fff" style="fill: var(--color1, #fff)" d="M32 2.415c-1.393 0.982-2.935 1.734-4.567 2.225-1.794-2.063-4.686-2.787-7.241-1.812s-4.229 3.441-4.192 6.175v1.455c-5.192 0.135-10.106-2.339-13.091-6.589 0 0-5.818 13.091 7.273 18.909-2.996 2.033-6.564 3.053-10.182 2.909 13.091 7.273 29.091 0 29.091-16.727-0.001-0.405-0.040-0.809-0.116-1.207 1.484-1.464 2.532-3.312 3.025-5.338z"></path>
</symbol>
<symbol id="icon-play" viewBox="0 0 32 32">
<path fill="#fff" style="fill: var(--color1, #fff)" d="M16 0c8.837 0 16 7.163 16 16s-7.163 16-16 16c-8.837 0-16-7.163-16-16s7.163-16 16-16zM16 1.882c-7.797 0-14.118 6.321-14.118 14.118s6.321 14.118 14.118 14.118c7.797 0 14.118-6.321 14.118-14.118s-6.321-14.118-14.118-14.118zM20.744 15.343c0.269 0.173 0.432 0.472 0.432 0.792s-0.163 0.618-0.432 0.791l-7.529 4.841c-0.29 0.186-0.658 0.199-0.96 0.034s-0.49-0.482-0.49-0.826v-9.681h0.941l0.509-0.792 7.529 4.841zM13.647 19.25l4.848-3.116-4.848-3.116v6.233z"></path>
</symbol>
<symbol id="icon-burger" viewBox="0 0 32 32">
<path fill="#fff" style="fill: var(--color1, #fff)" d="M0 12.667h32v1.333h-32v-1.333z"></path>
<path fill="#fff" style="fill: var(--color1, #fff)" d="M0 18h32v1.333h-32v-1.333z"></path>
</symbol>
<symbol id="icon-video-icon" viewBox="0 0 32 32">
<path fill="#e8594e" style="fill: var(--color2, #e8594e)" d="M16 32c8.837 0 16-7.163 16-16s-7.163-16-16-16c-8.837 0-16 7.163-16 16s7.163 16 16 16z"></path>
<path fill="#fff" style="fill: var(--color1, #fff)" d="M13.143 11.714l6.857 4.408-6.857 4.408v-8.816z"></path>
</symbol>
<symbol id="icon-facebook" viewBox="0 0 32 32">
<path fill="#fff" style="fill: var(--color1, #fff)" d="M24.8 0h-4.8c-4.418 0-8 3.582-8 8v4.8h-4.8v6.4h4.8v12.8h6.4v-12.8h4.8l1.6-6.4h-6.4v-4.8c0-0.884 0.716-1.6 1.6-1.6h4.8v-6.4z"></path>
</symbol>
<symbol id="icon-search" viewBox="0 0 32 32">
<path stroke-linejoin="round" stroke-linecap="round" stroke-miterlimit="4" stroke-width="3.2" d="M14.4 27.2c7.069 0 12.8-5.731 12.8-12.8s-5.731-12.8-12.8-12.8c-7.069 0-12.8 5.731-12.8 12.8s5.731 12.8 12.8 12.8z"></path>
<path stroke-linejoin="round" stroke-linecap="round" stroke-miterlimit="4" stroke-width="3.2" d="M30.4 30.4l-6.96-6.96"></path>
</symbol>
<symbol id="icon-user" viewBox="0 0 32 32">
<path d="M18 22.082v-1.649c2.203-1.241 4-4.337 4-7.432 0-4.971 0-9-6-9s-6 4.029-6 9c0 3.096 1.797 6.191 4 7.432v1.649c-6.784 0.555-12 3.888-12 7.918h28c0-4.030-5.216-7.364-12-7.918z"></path>
</symbol>
<symbol id="icon-airplane" viewBox="0 0 32 32">
<path fill="#fff" d="M24 19.999l-5.713-5.713 13.713-10.286-4-4-17.141 6.858-5.397-5.397c-1.556-1.556-3.728-1.928-4.828-0.828s-0.727 3.273 0.828 4.828l5.396 5.396-6.858 17.143 4 4 10.287-13.715 5.713 5.713v7.999h4l2-6 6-2v-4l-7.999 0z"></path>
</symbol>
</defs>
</svg>
